<svg width="160" height="11" viewBox="0 0 160 11" fill="none" xmlns="http://www.w3.org/2000/svg">
<path d="M1.43298 10.7692C-0.767885 8.67314 -0.43381 6.78825 2.43682 5.11563C5.30745 3.44244 10.0674 2.36803 16.7167 1.89128C18.1883 1.85609 19.6123 1.84247 20.988 1.84928C22.4596 1.81409 23.5648 1.68525 24.303 1.46219C25.0863 1.4236 27.1278 1.34187 30.4275 1.21701C33.893 1.12109 38.0114 0.993386 42.7818 0.833332C47.6231 0.744792 52.6431 0.628437 57.8409 0.484843C63.1089 0.412761 68.0331 0.338411 72.6135 0.262924C77.2889 0.14487 81.1811 0.065979 84.29 0.0251142C87.3981 -0.0157507 89.1184 -0.00666693 89.4501 0.0517925C89.6352 0.378711 90.1544 0.558628 91.0086 0.591547C92.0269 0.653412 92.9067 0.572816 93.6449 0.349762C94.5497 0.155654 95.6067 0.0478166 96.8174 0.0256814C98.0974 0.0750598 98.974 0.199926 99.4458 0.400845C100.063 0.333305 100.764 0.279954 101.548 0.24136C102.402 0.274279 103.054 0.241924 103.506 0.14487C103.959 0.047816 104.434 0.043279 104.93 0.130684C105.523 0.17609 106.046 0.150548 106.498 0.0534943C107.918 0.245332 109.993 0.404816 112.719 0.531951C115.541 0.617086 118.708 0.704495 122.218 0.793603C125.798 0.953657 129.392 1.05752 132.997 1.10406C136.673 1.22211 140.1 1.29646 143.279 1.32711C146.458 1.35776 149.127 1.3572 151.287 1.32541C153.446 1.2942 154.752 1.22949 155.203 1.13301C156.846 0.715846 158.121 1.17614 159.029 2.5139C159.761 2.70176 160.417 3.23017 160.999 4.09855C160.999 4.09855 160.831 4.27506 160.494 4.62809C160.322 5.01006 160.004 5.66106 159.541 6.58052C159.173 7.45798 158.525 8.05052 157.595 8.35757C156.736 8.73614 155.675 9.05001 154.414 9.2986C153.033 9.70271 151.689 9.93712 150.383 10.0013C149.172 10.0234 147.3 9.9286 144.764 9.7169C142.324 9.4632 138.485 9.11017 133.249 8.65782C131.967 8.60844 130.652 8.52387 129.302 8.40355C128.116 8.31217 126.979 8.20036 125.89 8.06698C124.965 7.96311 124.16 7.9092 123.472 7.90579C122.878 7.86038 122.487 7.87968 122.296 7.96368C121.843 8.06073 121.025 8.06357 119.84 7.97219C118.821 7.91033 117.575 7.89671 116.104 7.9319C115.014 7.79852 113.45 7.67025 111.412 7.54595C109.373 7.42222 107.252 7.28374 105.048 7.13049C102.914 7.04877 100.992 6.97498 99.2856 6.90971C97.6731 6.80187 96.7707 6.79052 96.5808 6.87452C96.2241 6.92957 95.7846 6.96987 95.2622 6.99541C94.8098 7.09246 94.2648 7.02549 93.6288 6.79563C93.4421 6.46871 92.9937 6.35974 92.2804 6.46985C91.7339 6.6089 91.4594 6.67814 91.4594 6.67814C90.6954 7.01471 87.4432 7.11858 81.7028 6.98974C79.0213 7.04706 74.9987 7.13276 69.635 7.24684C64.3413 7.43244 58.4431 7.62938 51.9395 7.83711C45.6017 8.07436 39.3461 8.32579 33.1733 8.59198C27.0964 8.81617 21.8381 9.03752 17.3985 9.25547C13.029 9.54492 10.2485 9.84971 9.05794 10.1698C6.58096 10.852 4.90334 11.2334 4.02428 11.314C3.04942 11.4366 2.18646 11.255 1.43379 10.7692H1.43298Z" fill="#004B97"/>
</svg>
