<svg width="25" height="25" viewBox="0 0 25 25" fill="none" xmlns="http://www.w3.org/2000/svg">
<path fill-rule="evenodd" clip-rule="evenodd" d="M4.94752 1.71825V1.12746C4.94759 1.02323 4.98903 0.923284 5.06273 0.84958C5.13643 0.775875 5.23638 0.73444 5.34061 0.734375H16.7362C16.7357 0.745993 16.7354 0.75761 16.7354 0.769326V2.96928C16.7354 3.50692 17.1786 3.95011 17.7163 3.95011H19.9162C19.9279 3.95011 19.9395 3.94987 19.9512 3.94938V14.4919C19.7897 14.4771 19.6276 14.4697 19.4655 14.4697C18.2453 14.4697 17.1193 14.8866 16.2226 15.5853H11.6638C11.4473 15.5853 11.2716 15.761 11.2716 15.9774C11.2716 16.1939 11.4473 16.3696 11.6638 16.3696H15.41C15.139 16.693 14.9074 17.0476 14.7202 17.4258H11.6638C11.4473 17.4258 11.2716 17.6015 11.2716 17.818C11.2716 18.0344 11.4473 18.2102 11.6638 18.2102H14.4078C14.2535 18.7121 14.1752 19.2344 14.1756 19.7596C14.1756 19.9011 14.1813 20.0413 14.1922 20.1801H5.34061C5.1237 20.1801 4.94752 20.0039 4.94752 19.7884V9.31217H9.35556C10.7046 9.31217 11.8081 8.20844 11.8081 6.86026C11.8081 5.93232 11.2798 5.09658 10.4796 4.68197C10.114 3.32227 8.8736 2.32124 7.39826 2.32124C7.18542 2.32124 6.97752 2.34212 6.77645 2.38192C6.24357 1.98894 5.60841 1.75846 4.94752 1.71825ZM11.6638 13.0347H17.3414C17.5579 13.0347 17.7336 12.8589 17.7336 12.6425C17.7336 12.426 17.5579 12.2504 17.3414 12.2504H11.6638C11.4473 12.2504 11.2716 12.426 11.2716 12.6425C11.2716 12.8589 11.4473 13.0347 11.6638 13.0347ZM6.73395 15.2851C6.55007 15.2851 6.40017 15.435 6.40017 15.6189V18.1765C6.40017 18.3604 6.55007 18.5103 6.73395 18.5103H9.29154C9.47547 18.5103 9.62537 18.3604 9.62537 18.1765V15.6189C9.62537 15.435 9.47547 15.2851 9.29154 15.2851H6.73395ZM7.05512 17.1097C6.90184 16.9569 6.9015 16.7083 7.05434 16.5551C7.20718 16.4019 7.45566 16.4015 7.60895 16.5543L7.86189 16.8066L8.3887 16.1557C8.52483 15.9875 8.77199 15.9614 8.94022 16.0976C9.10846 16.2337 9.13449 16.4809 8.99831 16.6491L8.19782 17.6382C8.16329 17.6809 8.12017 17.7159 8.07125 17.7408C8.02233 17.7658 7.96871 17.7802 7.91386 17.7832C7.85901 17.7861 7.80416 17.7774 7.75286 17.7578C7.70157 17.7381 7.65497 17.7079 7.6161 17.6691L7.05512 17.1097ZM6.73395 10.1096C6.55007 10.1096 6.40017 10.2595 6.40017 10.4434V13.001C6.40017 13.1849 6.55007 13.3364 6.73395 13.3364H9.29154C9.47547 13.3364 9.62537 13.1849 9.62537 13.001V10.4434C9.62537 10.2595 9.47547 10.1096 9.29154 10.1096H6.73395ZM7.05473 11.9338C6.98123 11.8603 6.93995 11.7605 6.93995 11.6566C6.93995 11.5526 6.98123 11.4528 7.05473 11.3793C7.12829 11.3058 7.22804 11.2645 7.33203 11.2645C7.43603 11.2645 7.53578 11.3058 7.60934 11.3793L7.86223 11.6322L8.3887 10.9818C8.52483 10.8135 8.77199 10.7875 8.94022 10.9236C9.02103 10.9891 9.07253 11.084 9.08343 11.1874C9.09432 11.2908 9.0637 11.3943 8.99831 11.4752L8.19782 12.4642C8.16324 12.507 8.12007 12.5419 8.0711 12.5669C8.02213 12.5919 7.96846 12.6062 7.91358 12.6091C7.85869 12.612 7.80381 12.6033 7.75249 12.5836C7.70118 12.5639 7.65458 12.5337 7.61571 12.4948L7.05473 11.9338ZM17.6567 6.20717H14.4551C14.2386 6.20717 14.0629 6.38286 14.0629 6.59933C14.0629 6.81575 14.2386 6.99148 14.4551 6.99148H17.6567C17.8732 6.99148 18.0488 6.81575 18.0488 6.59933C18.0488 6.38286 17.8732 6.20717 17.6567 6.20717ZM17.6567 4.54844H16.0559C15.8394 4.54844 15.6638 4.72413 15.6638 4.9406C15.6638 5.15702 15.8394 5.33276 16.0559 5.33276H17.6567C17.8732 5.33276 18.0488 5.15702 18.0488 4.9406C18.0488 4.72413 17.8732 4.54844 17.6567 4.54844ZM11.6638 11.1941H17.3414C17.5579 11.1941 17.7336 11.0184 17.7336 10.802C17.7336 10.5855 17.5579 10.4098 17.3414 10.4098H11.6638C11.4473 10.4098 11.2716 10.5855 11.2716 10.802C11.2716 11.0184 11.4473 11.1941 11.6638 11.1941ZM17.6567 7.8659H12.2632C12.0467 7.8659 11.871 8.04163 11.871 8.25805C11.871 8.47447 12.0467 8.65021 12.2632 8.65021H17.6567C17.8732 8.65021 18.0488 8.47447 18.0488 8.25805C18.0488 8.04163 17.8732 7.8659 17.6567 7.8659ZM17.5197 0.769326C17.5626 0.788682 17.6017 0.815822 17.6347 0.849375L19.8361 3.0508C19.8697 3.08386 19.8968 3.12285 19.9162 3.1658H17.7163C17.6085 3.1658 17.5197 3.07702 17.5197 2.96928V0.769326ZM9.35556 8.52786H2.69939C1.78184 8.52786 1.03125 7.77727 1.03125 6.86026C1.03125 6.16452 1.46316 5.56501 2.07154 5.3154C2.06869 5.26431 2.06732 5.21315 2.06743 5.16197C2.06743 3.68972 3.26056 2.49599 4.73282 2.49599C5.45272 2.49599 6.10654 2.78158 6.5863 3.24599C6.84685 3.15277 7.12154 3.10526 7.39826 3.10555C8.63919 3.10555 9.66003 4.04438 9.79047 5.2505C10.5145 5.44702 11.0238 6.10908 11.0238 6.86026C11.0238 7.77727 10.2732 8.52786 9.35556 8.52786ZM19.4655 24.2638C16.9842 24.2638 14.9599 22.2408 14.9599 19.7596C14.9599 17.2783 16.9842 15.254 19.4655 15.254C21.9468 15.254 23.9697 17.2783 23.9697 19.7596C23.9697 22.2408 21.9468 24.2638 19.4655 24.2638ZM18.8741 20.1561L17.8673 19.1493C17.6065 18.8886 17.1832 18.8886 16.9224 19.1493C16.6616 19.4114 16.6616 19.8335 16.9224 20.0943L18.4023 21.5755C18.6631 21.8363 19.0864 21.8363 19.3472 21.5755C20.2397 20.683 21.1214 19.7811 22.0099 18.8846C22.2693 18.6225 22.268 18.2004 22.0072 17.9409C21.7465 17.6815 21.3231 17.6829 21.0637 17.9436L18.8741 20.1561Z" fill="white"/>
</svg>
