<svg width="25" height="25" viewBox="0 0 25 25" fill="none" xmlns="http://www.w3.org/2000/svg">
<path d="M17.1063 1.5625H3.98047C3.56607 1.5625 3.16864 1.72712 2.87561 2.02015C2.58259 2.31317 2.41797 2.7106 2.41797 3.125V21.2016C2.41797 21.418 2.65078 21.5555 2.84062 21.4508L4.3125 20.6398C4.39844 20.593 4.50156 20.593 4.5875 20.6398L6.34375 21.6078C6.42891 21.6547 6.53281 21.6547 6.61875 21.6078L8.375 20.6398C8.46094 20.593 8.56406 20.593 8.65 20.6398L10.4063 21.6078C10.4922 21.6547 10.5953 21.6547 10.6812 21.6078L11.7469 21.0203C11.388 20.2106 11.2026 19.3348 11.2023 18.4492C11.2023 14.9234 14.0703 12.0555 17.5961 12.0555C17.9625 12.0555 18.3195 12.0938 18.6688 12.1531V3.125C18.6688 2.7106 18.5041 2.31317 18.2111 2.02015C17.9181 1.72712 17.5207 1.5625 17.1063 1.5625ZM10.5453 15.0016H6.1C5.91352 15.0016 5.73468 14.9275 5.60282 14.7956C5.47095 14.6638 5.39687 14.4849 5.39687 14.2984C5.39687 14.112 5.47095 13.9331 5.60282 13.8013C5.73468 13.6694 5.91352 13.5953 6.1 13.5953H10.5445C10.731 13.5952 10.9099 13.6692 11.0418 13.801C11.1738 13.9328 11.2479 14.1116 11.248 14.298C11.2481 14.4845 11.1742 14.6634 11.0424 14.7953C10.9106 14.9273 10.7318 15.0015 10.5453 15.0016ZM14.9898 11.3992H6.1C5.91352 11.3992 5.73468 11.3251 5.60282 11.1933C5.47095 11.0614 5.39687 10.8826 5.39687 10.6961C5.39687 10.5096 5.47095 10.3308 5.60282 10.1989C5.73468 10.067 5.91352 9.99297 6.1 9.99297H14.9891C15.1755 9.99287 15.3544 10.0668 15.4864 10.1986C15.6183 10.3304 15.6925 10.5092 15.6926 10.6957C15.6927 10.8822 15.6187 11.0611 15.4869 11.193C15.3551 11.3249 15.1763 11.3991 14.9898 11.3992ZM14.9898 7.79687H6.1C5.91352 7.79687 5.73468 7.7228 5.60282 7.59093C5.47095 7.45907 5.39687 7.28023 5.39687 7.09375C5.39687 6.90727 5.47095 6.72843 5.60282 6.59657C5.73468 6.4647 5.91352 6.39062 6.1 6.39062H14.9891C15.1755 6.39052 15.3544 6.4645 15.4864 6.59629C15.6183 6.72808 15.6925 6.90688 15.6926 7.09336C15.6927 7.27984 15.6187 7.45872 15.4869 7.59066C15.3551 7.72259 15.1763 7.79677 14.9898 7.79687Z" fill="white"/>
<path d="M17.5968 13.4613C16.9366 13.4531 16.2814 13.576 15.6691 13.8229C15.0568 14.0698 14.4996 14.4358 14.0298 14.8997C13.5601 15.3637 13.1871 15.9162 12.9325 16.5254C12.678 17.1346 12.5469 17.7882 12.5469 18.4484C12.5469 19.1087 12.678 19.7623 12.9325 20.3715C13.1871 20.9806 13.5601 21.5332 14.0298 21.9971C14.4996 22.461 15.0568 22.8271 15.6691 23.074C16.2814 23.3209 16.9366 23.4438 17.5968 23.4355C18.9086 23.4191 20.1612 22.8865 21.0831 21.953C22.0049 21.0195 22.5219 19.7604 22.5219 18.4484C22.5219 17.1365 22.0049 15.8774 21.0831 14.9439C20.1612 14.0104 18.9086 13.4777 17.5968 13.4613ZM18.2991 20.8684V20.9895C18.3067 21.1744 18.2405 21.3547 18.1151 21.4908C17.9897 21.627 17.8153 21.7077 17.6304 21.7152C17.4455 21.7228 17.2651 21.6566 17.129 21.5312C16.9929 21.4058 16.9122 21.2314 16.9046 21.0465C16.6162 21.0019 16.3535 20.8554 16.1641 20.6334C15.9746 20.4115 15.8712 20.1289 15.8726 19.8371C15.872 19.6664 15.9336 19.5014 16.0458 19.3727C16.158 19.2441 16.3132 19.1607 16.4823 19.138C16.6515 19.1153 16.8232 19.155 16.9653 19.2495C17.1074 19.3441 17.2102 19.4871 17.2546 19.652C17.7952 19.6113 18.0921 19.4699 18.1109 19.3676C18.1007 19.3746 17.9546 19.2527 17.4405 19.1355C16.2179 18.8574 15.6273 18.2895 15.6843 17.4504C15.714 17.0152 15.932 16.3512 16.8945 16.0254V15.909C16.8939 15.7285 16.9632 15.5548 17.0878 15.4243C17.2125 15.2938 17.3829 15.2166 17.5632 15.2089C17.7435 15.2013 17.9198 15.2637 18.0551 15.3831C18.1904 15.5026 18.2742 15.6697 18.289 15.8496C18.5351 15.8887 18.7609 15.9996 18.9437 16.1762C19.1827 16.4066 19.3195 16.7293 19.3195 17.0613C19.3195 17.2316 19.2577 17.3961 19.1457 17.5242C19.0336 17.6524 18.8789 17.7356 18.7101 17.7583C18.5414 17.781 18.3702 17.7417 18.2282 17.6477C18.0862 17.5538 17.9832 17.4115 17.9382 17.2473C17.3898 17.2871 17.096 17.4215 17.0882 17.5449C17.0882 17.5129 17.2054 17.6387 17.7538 17.7637C19.239 18.102 19.5335 18.8379 19.5187 19.3949C19.507 19.7645 19.3405 20.5121 18.2991 20.8684Z" fill="white"/>
</svg>
