<svg width="36" height="36" viewBox="0 0 36 36" fill="none" xmlns="http://www.w3.org/2000/svg">
<path d="M17.9668 0.544922C27.5888 0.544992 35.3887 8.34481 35.3887 17.9668C35.3886 27.5887 27.5887 35.3886 17.9668 35.3887C8.34481 35.3887 0.544992 27.5888 0.544922 17.9668C0.544922 8.34477 8.34477 0.544922 17.9668 0.544922Z" fill="white" stroke="#004B97" stroke-width="1.08889"/>
<path fill-rule="evenodd" clip-rule="evenodd" d="M34.7241 18.7675C34.072 27.2783 27.2809 34.0709 18.7707 34.7253L8.11245 24.0671C7.84129 23.8433 7.66797 23.5049 7.66797 23.1271V11.8741L10.7031 13.6293L7.98042 10.9066C8.20356 10.6574 8.52816 10.5 8.88724 10.5H25.9554C26.3145 10.5 26.6391 10.6571 26.8623 10.9057L34.7241 18.7675Z" fill="#EBEBEB"/>
<path fill-rule="evenodd" clip-rule="evenodd" d="M27.1747 11.8729L17.676 17.367C17.5259 17.4565 17.3331 17.4642 17.1728 17.3707L7.66797 11.8741V23.1271C7.66797 23.7986 8.21571 24.346 8.88724 24.346H25.9554C26.6269 24.346 27.1747 23.7986 27.1747 23.1271V11.8729ZM8.88724 10.5H25.9554C26.3145 10.5 26.6391 10.6571 26.8623 10.9057L17.4223 16.3666L7.98034 10.9065C8.20356 10.6574 8.52816 10.5 8.88724 10.5Z" fill="#004B97"/>
</svg>
