<svg width="25" height="25" viewBox="0 0 25 25" fill="none" xmlns="http://www.w3.org/2000/svg">
<path fill-rule="evenodd" clip-rule="evenodd" d="M2.28369 5.51418C2.20266 5.53001 2.11898 5.5383 2.03339 5.5383C1.31643 5.5383 0.734375 4.95624 0.734375 4.23928C0.734375 3.52232 1.31643 2.94026 2.03339 2.94026C2.75036 2.94026 3.33241 3.52232 3.33241 4.23928C3.33241 4.62428 3.16457 4.97036 2.89815 5.2083L3.5408 6.44516H5.02384V7.13143H3.33241C3.2696 7.13144 3.20798 7.11419 3.15429 7.08159C3.10059 7.04899 3.05688 7.00227 3.0279 6.94653L2.28369 5.51418ZM22.7145 5.51418L21.9703 6.94653C21.9413 7.00227 21.8976 7.04899 21.8439 7.08159C21.7902 7.11419 21.7286 7.13144 21.6657 7.13143H19.9743V6.44516H21.4574L22.1 5.2083C21.8336 4.97036 21.6657 4.62428 21.6657 4.23928C21.6657 3.52232 22.2478 2.94026 22.9648 2.94026C23.6817 2.94026 24.2638 3.52232 24.2638 4.23928C24.2638 4.95624 23.6817 5.5383 22.9648 5.5383C22.8792 5.5383 22.7955 5.53001 22.7145 5.51418ZM21.7116 12.3765H19.9743V11.6903H21.7116C21.8623 11.1396 22.3666 10.7344 22.9648 10.7344C23.6817 10.7344 24.2638 11.3164 24.2638 12.0334C24.2638 12.7504 23.6817 13.3324 22.9648 13.3324C22.3666 13.3324 21.8623 12.9272 21.7116 12.3765ZM22.1087 18.8753L21.4574 17.6216H19.9743V16.9354H21.6657C21.7286 16.9354 21.7902 16.9526 21.8439 16.9852C21.8976 17.0178 21.9413 17.0645 21.9703 17.1203L22.7261 18.5749C22.8048 18.5603 22.8847 18.553 22.9648 18.553C23.6817 18.553 24.2638 19.1351 24.2638 19.852C24.2638 20.569 23.6817 21.151 22.9648 21.151C22.2478 21.151 21.6657 20.569 21.6657 19.852C21.6657 19.4629 21.8373 19.1134 22.1087 18.8753ZM2.88942 18.8753C3.16089 19.1134 3.33241 19.4629 3.33241 19.852C3.33241 20.569 2.75036 21.151 2.03339 21.151C1.31643 21.151 0.734375 20.569 0.734375 19.852C0.734375 19.1351 1.31643 18.553 2.03339 18.553C2.11491 18.553 2.19472 18.5606 2.27207 18.5749L3.0279 17.1203C3.05688 17.0645 3.10059 17.0178 3.15429 16.9852C3.20798 16.9526 3.2696 16.9354 3.33241 16.9354H5.02384V17.6216H3.5408L2.88942 18.8753ZM3.28653 12.3765C3.1359 12.9272 2.63158 13.3324 2.03339 13.3324C1.31643 13.3324 0.734375 12.7504 0.734375 12.0334C0.734375 11.3164 1.31643 10.7344 2.03339 10.7344C2.63158 10.7344 3.1359 11.1396 3.28653 11.6903H5.02384V12.3765H3.28653ZM19.2881 22.5561C19.2881 23.4954 18.5197 24.2638 17.5804 24.2638H7.41639C6.47849 24.2638 5.71011 23.4954 5.71011 22.5561V2.44202C5.71011 1.50276 6.47849 0.734375 7.41639 0.734375H17.5804C18.5197 0.734375 19.2881 1.50276 19.2881 2.44202V22.5561ZM17.2509 13.5621C17.816 13.5621 18.2711 13.1052 18.2711 12.5419V11.5249C18.2711 10.9616 17.816 10.5047 17.2509 10.5047C16.86 10.5047 16.6638 10.031 16.9402 9.75457C17.3385 9.35629 17.3385 8.71016 16.9402 8.31188L16.2214 7.59246L16.2212 7.59227C15.8232 7.19428 15.1758 7.19428 14.7779 7.59227C14.5015 7.86869 14.0278 7.67271 14.0278 7.28158C14.0278 6.71825 13.5709 6.26134 13.0076 6.26134H11.9906C11.4273 6.26134 10.9704 6.71825 10.9704 7.28158C10.9704 7.67271 10.4967 7.86869 10.2203 7.59227C9.82197 7.19393 9.17585 7.19393 8.77756 7.59227L8.05795 8.31188C7.65962 8.71016 7.65962 9.35629 8.05795 9.75457C8.33438 10.031 8.1384 10.5047 7.74727 10.5047C7.18393 10.5047 6.72702 10.9616 6.72702 11.5249V12.5419C6.72702 13.1052 7.18393 13.5621 7.74727 13.5621C8.1384 13.5621 8.33438 14.0358 8.05795 14.3122C7.65996 14.7102 7.65996 15.3576 8.05795 15.7555L8.05815 15.7557L8.77776 16.4748C9.17585 16.8729 9.82197 16.8729 10.2203 16.4745C10.4969 16.1979 10.9704 16.3939 10.9704 16.7852C10.9704 17.3504 11.4273 17.8055 11.9906 17.8055H13.0076C13.5709 17.8055 14.0278 17.3504 14.0278 16.7852C14.0278 16.3943 14.5015 16.1981 14.7779 16.4745C15.1758 16.8725 15.8232 16.8725 16.2212 16.4745L16.9402 15.7555C17.3382 15.3576 17.3382 14.7102 16.9402 14.3122C16.6638 14.0358 16.86 13.5621 17.2509 13.5621ZM17.2509 12.8758C16.2495 12.8758 15.7467 14.0893 16.455 14.7975C16.5176 14.8603 16.5527 14.9453 16.5527 15.0339C16.5527 15.1225 16.5176 15.2075 16.455 15.2703L15.7359 15.9893C15.6732 16.0519 15.5882 16.087 15.4996 16.087C15.4109 16.087 15.3259 16.0519 15.2632 15.9893C14.555 15.281 13.3415 15.7838 13.3415 16.7852C13.3416 16.8291 13.333 16.8725 13.3162 16.9131C13.2994 16.9536 13.2748 16.9904 13.2438 17.0215C13.2128 17.0525 13.176 17.0771 13.1354 17.0939C13.0949 17.1106 13.0514 17.1192 13.0076 17.1192H11.9906C11.9467 17.1192 11.9033 17.1106 11.8627 17.0939C11.8222 17.0771 11.7854 17.0525 11.7543 17.0215C11.7233 16.9904 11.6987 16.9536 11.682 16.9131C11.6652 16.8725 11.6566 16.8291 11.6566 16.7852C11.6566 15.7826 10.4438 15.2805 9.73496 15.9893C9.67235 16.0519 9.58744 16.087 9.49891 16.087C9.41038 16.087 9.32547 16.0519 9.26286 15.9893L8.5432 15.2703C8.4806 15.2075 8.44545 15.1225 8.44545 15.0339C8.44545 14.9453 8.4806 14.8603 8.5432 14.7975C9.25143 14.0893 8.74923 12.8758 7.74727 12.8758C7.6587 12.8758 7.57376 12.8406 7.51113 12.778C7.4485 12.7154 7.41331 12.6304 7.4133 12.5419V11.5249C7.41331 11.4363 7.4485 11.3514 7.51113 11.2888C7.57376 11.2261 7.6587 11.191 7.74727 11.1909C8.74923 11.1909 9.25143 9.97751 8.5432 9.26928C8.4806 9.20667 8.44544 9.12176 8.44544 9.03322C8.44544 8.94469 8.4806 8.85978 8.5432 8.79717L9.26286 8.07751C9.32547 8.01492 9.41038 7.97975 9.49891 7.97975C9.58744 7.97975 9.67235 8.01492 9.73496 8.07751C10.4432 8.78575 11.6566 8.28354 11.6566 7.28158C11.6566 7.19301 11.6918 7.10807 11.7545 7.04544C11.8171 6.98281 11.902 6.94762 11.9906 6.94761H13.0076C13.0961 6.94762 13.1811 6.98281 13.2437 7.04544C13.3063 7.10807 13.3415 7.19301 13.3415 7.28158C13.3415 8.28354 14.555 8.78575 15.2632 8.07751C15.3259 8.01491 15.4109 7.97976 15.4996 7.97976C15.5882 7.97976 15.6732 8.01491 15.7359 8.07751L16.455 8.79717C16.5176 8.85978 16.5527 8.94469 16.5527 9.03322C16.5527 9.12176 16.5176 9.20667 16.455 9.26928C15.7467 9.97751 16.2495 11.1909 17.2509 11.1909C17.2948 11.1909 17.3382 11.1995 17.3788 11.2163C17.4193 11.233 17.4561 11.2576 17.4871 11.2887C17.5182 11.3197 17.5428 11.3565 17.5595 11.3971C17.5763 11.4376 17.5849 11.481 17.5849 11.5249V12.5419C17.5849 12.5857 17.5763 12.6292 17.5595 12.6697C17.5428 12.7103 17.5182 12.7471 17.4871 12.7781C17.4561 12.8092 17.4193 12.8337 17.3788 12.8505C17.3382 12.8673 17.2948 12.8759 17.2509 12.8758ZM12.4994 14.8205C14.0339 14.8205 15.2861 13.5682 15.2861 12.0337C15.2861 10.4985 14.0339 9.24693 12.4994 9.24693C10.9642 9.24693 9.71261 10.4985 9.71261 12.0337C9.71261 13.5682 10.9642 14.8205 12.4994 14.8205ZM12.4994 14.1342C11.3423 14.1342 10.3989 13.1903 10.3989 12.0337C10.3989 10.8766 11.3423 9.9332 12.4994 9.9332C13.656 9.9332 14.5999 10.8766 14.5999 12.0337C14.5999 13.1903 13.656 14.1342 12.4994 14.1342ZM11.5709 22.2379H13.4273C13.6166 22.2379 13.7704 22.0841 13.7704 21.8947C13.7704 21.7054 13.6166 21.5516 13.4273 21.5516H11.5709C11.3815 21.5516 11.2278 21.7054 11.2278 21.8947C11.2278 22.0841 11.3815 22.2379 11.5709 22.2379Z" fill="white"/>
</svg>
