<svg width="61" height="30" viewBox="0 0 61 30" fill="none" xmlns="http://www.w3.org/2000/svg">
<path d="M60.7127 29.1244C60.7112 29.2602 60.6565 29.3899 60.5604 29.4859C60.4644 29.5819 60.3345 29.6365 60.1986 29.638H25.268C25.1321 29.6365 25.0023 29.5819 24.9062 29.4859C24.8101 29.3899 24.7554 29.2602 24.7539 29.1244V22.037C24.7554 21.9013 24.8101 21.7715 24.9062 21.6755C25.0023 21.5796 25.1321 21.525 25.268 21.5234H60.2133C60.3492 21.525 60.479 21.5796 60.5751 21.6755C60.6712 21.7715 60.7259 21.9013 60.7274 22.037L60.7127 29.1244Z" fill="#21B799"/>
<path d="M28.6302 25.7775V27.2156H28.1602V23.7672H29.1296C29.3234 23.7588 29.5172 23.7836 29.7025 23.8406C29.8472 23.874 29.9827 23.9391 30.0991 24.0314C30.1977 24.117 30.2776 24.2219 30.3341 24.3395C30.3824 24.466 30.4073 24.6003 30.4076 24.7357C30.4108 24.851 30.3908 24.9658 30.3488 25.0732C30.3128 25.1754 30.258 25.2699 30.1872 25.352C30.1091 25.4366 30.0202 25.5106 29.9228 25.5721C29.8127 25.6336 29.6938 25.6781 29.5703 25.7042C29.6297 25.7414 29.6799 25.7916 29.7172 25.8509L30.7161 27.2156H30.3048C30.2664 27.2186 30.228 27.2106 30.1941 27.1923C30.1602 27.1741 30.1323 27.1465 30.1138 27.1128L29.2178 25.8802C29.1963 25.8439 29.166 25.8136 29.1296 25.7922C29.0837 25.7708 29.0334 25.7607 28.9827 25.7629L28.6302 25.7775ZM28.6302 25.44H29.1149C29.2339 25.4417 29.3526 25.4269 29.4675 25.396C29.5636 25.37 29.6534 25.3251 29.7319 25.2639C29.8016 25.2036 29.8568 25.1284 29.8935 25.0438C29.9285 24.9548 29.9483 24.8606 29.9522 24.765C29.9571 24.6762 29.941 24.5874 29.9053 24.5058C29.8696 24.4243 29.8152 24.3522 29.7466 24.2955C29.5687 24.1777 29.3573 24.121 29.1443 24.1341H28.6302V25.44Z" fill="white"/>
<path d="M32.1127 24.7383C32.2529 24.74 32.3918 24.7648 32.524 24.8116C32.6447 24.8571 32.7548 24.927 32.8471 25.0171C32.9406 25.1124 33.011 25.2278 33.0528 25.3546C33.1021 25.5062 33.1268 25.6647 33.1262 25.8241C33.1249 25.8685 33.12 25.9127 33.1115 25.9562C33.087 25.9769 33.0554 25.9875 33.0234 25.9855H31.4076C31.4094 26.1196 31.4292 26.2529 31.4663 26.3817C31.4989 26.4855 31.5541 26.5807 31.6279 26.6605C31.696 26.7317 31.7754 26.7912 31.863 26.8366C31.9598 26.8799 32.0654 26.9 32.1714 26.8953C32.2663 26.8974 32.3609 26.8825 32.4505 26.8513C32.5175 26.8227 32.5862 26.7982 32.6562 26.7779C32.707 26.7519 32.7561 26.7224 32.803 26.6899C32.8323 26.6655 32.868 26.6502 32.9059 26.6459C32.9228 26.6469 32.9393 26.6514 32.9544 26.6589C32.9696 26.6665 32.983 26.677 32.994 26.6899L33.1115 26.8513C33.0548 26.9128 32.9907 26.967 32.9206 27.0127C32.8469 27.0605 32.768 27.0999 32.6855 27.1301C32.5994 27.1613 32.511 27.1859 32.4211 27.2035C32.3336 27.2157 32.2451 27.2206 32.1567 27.2181C31.9959 27.2187 31.8364 27.1889 31.6867 27.1301C31.5484 27.0731 31.4234 26.9882 31.3195 26.8806C31.2076 26.7658 31.1267 26.6244 31.0844 26.4698C31.0231 26.2904 30.9933 26.1017 30.9963 25.9122C30.9969 25.7528 31.0216 25.5945 31.0697 25.4426C31.1221 25.3044 31.1965 25.1756 31.2901 25.0611C31.3913 24.9571 31.5108 24.8725 31.6426 24.8116C31.7947 24.7636 31.9532 24.7388 32.1127 24.7383ZM32.1274 25.0611C32.0388 25.0562 31.9502 25.0692 31.8669 25.0995C31.7836 25.1298 31.7073 25.1766 31.6426 25.2372C31.5151 25.374 31.4374 25.5498 31.4223 25.7361H32.7443C32.7452 25.6414 32.7303 25.5471 32.7002 25.4573C32.6732 25.3781 32.6335 25.3038 32.5827 25.2372C32.529 25.1803 32.464 25.1353 32.3918 25.1051C32.3072 25.0738 32.2175 25.0589 32.1274 25.0611Z" fill="white"/>
<path d="M35.4594 27.2152H35.2685C35.2335 27.2187 35.1982 27.2136 35.1656 27.2005C35.1504 27.1919 35.138 27.1789 35.1301 27.1632C35.1223 27.1475 35.1193 27.1299 35.1216 27.1125L35.0775 26.8924C35.0188 26.9511 34.9453 26.9951 34.8866 27.0538C34.8263 27.0982 34.7624 27.1374 34.6956 27.1712C34.6254 27.2043 34.5514 27.229 34.4753 27.2445C34.3932 27.2624 34.3095 27.2722 34.2255 27.2739C34.1356 27.2736 34.0463 27.2587 33.9611 27.2299C33.8819 27.2028 33.8075 27.1632 33.7408 27.1125C33.6803 27.053 33.6306 26.9835 33.5939 26.907C33.5575 26.8133 33.5376 26.714 33.5352 26.6136C33.5369 26.5161 33.5621 26.4205 33.6086 26.3348C33.6732 26.2388 33.7586 26.1586 33.8583 26.1C34.0046 26.0166 34.1633 25.9571 34.3284 25.9239C34.5605 25.8787 34.797 25.859 35.0334 25.8652V25.6744C35.0436 25.5234 35.0022 25.3734 34.9159 25.2489C34.872 25.1996 34.8174 25.1608 34.7564 25.1354C34.6954 25.11 34.6294 25.0986 34.5634 25.1022C34.4733 25.1 34.3835 25.1149 34.299 25.1462C34.2255 25.1755 34.1668 25.2049 34.108 25.2342C34.0597 25.2565 34.015 25.2862 33.9758 25.3223C33.9426 25.3495 33.9013 25.3649 33.8583 25.3663C33.8311 25.3658 33.8049 25.3554 33.7849 25.3369C33.7702 25.3223 33.7408 25.3076 33.7261 25.2783L33.6527 25.1462C33.9061 24.8935 34.2493 24.7511 34.6075 24.75C34.7335 24.7502 34.8583 24.7751 34.9747 24.8234C35.077 24.8646 35.1677 24.9301 35.2391 25.0141C35.3183 25.0958 35.3741 25.1971 35.4007 25.3076C35.4439 25.43 35.4638 25.5594 35.4594 25.6891V27.2152ZM34.3577 26.9511C34.4272 26.9495 34.4963 26.9397 34.5634 26.9217C34.6242 26.9088 34.6833 26.8891 34.7397 26.863C34.7967 26.8341 34.8508 26.7997 34.9012 26.7603C34.9453 26.7163 35.0041 26.6723 35.0481 26.6282V26.1147C34.8806 26.112 34.7132 26.1268 34.5487 26.1587C34.4325 26.1799 34.3192 26.2143 34.2109 26.2614C34.1363 26.2943 34.0708 26.3446 34.0199 26.4081C33.9786 26.4629 33.9578 26.5304 33.9611 26.5989C33.9624 26.6539 33.9723 26.7084 33.9905 26.7603C34.0062 26.808 34.0372 26.8493 34.0787 26.8777C34.0957 26.8958 34.1161 26.9103 34.1388 26.9204C34.1615 26.9304 34.186 26.9359 34.2109 26.9364C34.2402 26.9364 34.299 26.9511 34.3577 26.9511Z" fill="white"/>
<path d="M37.8212 27.2161C37.7942 27.2181 37.7675 27.2102 37.7459 27.1941C37.7243 27.1779 37.7093 27.1544 37.7036 27.128L37.6596 26.8345C37.5642 26.9601 37.4443 27.0649 37.307 27.1427C37.1674 27.2191 37.0109 27.2595 36.8517 27.2601C36.7193 27.2606 36.5885 27.2305 36.4698 27.172C36.3564 27.1152 36.2563 27.0352 36.176 26.9373C36.0893 26.8175 36.0247 26.6834 35.985 26.5411C35.9421 26.3684 35.9224 26.1907 35.9263 26.0128C35.9269 25.8439 35.9517 25.6759 35.9997 25.5139C36.038 25.3682 36.1082 25.2329 36.2054 25.1177C36.2935 25.0022 36.4098 24.9113 36.5432 24.8536C36.6812 24.7886 36.8314 24.7536 36.9839 24.7509C37.1148 24.7497 37.2446 24.7746 37.3658 24.8242C37.4733 24.8705 37.5688 24.9408 37.6449 25.0297V23.6797H38.0709V27.2161H37.8212ZM36.9986 26.8932C37.1289 26.8997 37.2578 26.8637 37.3658 26.7905C37.481 26.7176 37.5808 26.6229 37.6596 26.5117V25.3378C37.5936 25.2413 37.5021 25.1651 37.3952 25.1177C37.2979 25.0758 37.1926 25.0558 37.0867 25.059C36.985 25.0552 36.8839 25.0758 36.7918 25.1193C36.6998 25.1627 36.6195 25.2276 36.5579 25.3085C36.4291 25.5146 36.3675 25.7556 36.3816 25.9981C36.3793 26.1364 36.3941 26.2744 36.4257 26.409C36.4504 26.5074 36.49 26.6014 36.5432 26.6878C36.5918 26.7572 36.6576 26.8128 36.7342 26.8492C36.8187 26.8805 36.9084 26.8954 36.9986 26.8932Z" fill="white"/>
<path d="M39.5156 27.9361C39.5046 27.9663 39.4839 27.9921 39.4568 28.0095C39.4265 28.0299 39.3905 28.0402 39.354 28.0388H39.0308L39.4715 27.0703L38.4727 24.7812H38.8399C38.8715 24.7819 38.9023 24.7922 38.928 24.8106C38.9427 24.8253 38.9574 24.8546 38.9721 24.8693L39.6184 26.3954C39.6331 26.4247 39.6478 26.4687 39.6625 26.4981C39.6772 26.5274 39.6772 26.5714 39.6919 26.6008C39.7065 26.5681 39.7164 26.5335 39.7212 26.4981C39.7359 26.4687 39.7506 26.4247 39.7653 26.3954L40.3969 24.8693C40.4079 24.8472 40.4228 24.8273 40.441 24.8106C40.4704 24.7959 40.4851 24.7812 40.5144 24.7812H40.8523L39.5156 27.9361Z" fill="white"/>
<path d="M42.7786 25.9227V27.214H42.3086V23.7657H43.3221C43.5155 23.7645 43.7082 23.7892 43.895 23.839C44.0443 23.8762 44.1812 23.9521 44.2916 24.0591C44.3987 24.1487 44.4798 24.2652 44.5266 24.3966C44.6296 24.682 44.6244 24.9952 44.512 25.2771C44.4597 25.4094 44.3736 25.5258 44.2622 25.6146C44.1496 25.7186 44.0136 25.7941 43.8656 25.8347C43.6853 25.8916 43.4964 25.9164 43.3074 25.908L42.7786 25.9227ZM42.7786 25.5559H43.3368C43.4571 25.5603 43.577 25.5404 43.6894 25.4972C43.7836 25.4698 43.8694 25.4194 43.9391 25.3504C44.0088 25.2901 44.064 25.2149 44.1007 25.1303C44.1357 25.0362 44.1555 24.9372 44.1594 24.8368C44.1643 24.7415 44.1484 24.6462 44.1129 24.5576C44.0774 24.4689 44.0231 24.389 43.9538 24.3233C43.7784 24.1864 43.5589 24.1185 43.3368 24.1325H42.7786V25.5559Z" fill="white"/>
<path d="M46.7993 27.2152H46.6083C46.5733 27.2187 46.5381 27.2136 46.5055 27.2005C46.4902 27.1919 46.4778 27.1789 46.47 27.1632C46.4621 27.1475 46.4591 27.1299 46.4614 27.1125L46.4174 26.8924C46.3586 26.9511 46.2852 26.9951 46.2264 27.0538C46.1661 27.0982 46.1023 27.1374 46.0354 27.1712C45.9661 27.2065 45.8918 27.2313 45.8151 27.2445C45.733 27.2624 45.6494 27.2722 45.5654 27.2739C45.4754 27.2736 45.3862 27.2587 45.301 27.2299C45.2217 27.2028 45.1473 27.1632 45.0806 27.1125C45.0202 27.053 44.9705 26.9835 44.9338 26.907C44.8973 26.8133 44.8774 26.714 44.875 26.6136C44.8767 26.5161 44.9019 26.4205 44.9484 26.3348C45.0131 26.2388 45.0984 26.1586 45.1982 26.1C45.3444 26.0166 45.5031 25.9571 45.6682 25.9239C45.9004 25.8787 46.1368 25.859 46.3733 25.8652V25.6744C46.3834 25.5234 46.342 25.3734 46.2558 25.2489C46.2118 25.1996 46.1573 25.1608 46.0962 25.1354C46.0352 25.11 45.9693 25.0986 45.9032 25.1022C45.8131 25.1 45.7234 25.1149 45.6388 25.1462C45.5654 25.1755 45.5066 25.2049 45.4479 25.2342C45.3995 25.2565 45.3549 25.2862 45.3157 25.3223C45.2824 25.3495 45.2411 25.3649 45.1982 25.3663C45.1709 25.3658 45.1448 25.3554 45.1247 25.3369C45.11 25.3223 45.0806 25.3076 45.066 25.2783L44.9925 25.1462C45.246 24.8935 45.5892 24.7511 45.9473 24.75C46.0733 24.7502 46.1981 24.7751 46.3145 24.8234C46.4168 24.8646 46.5076 24.9301 46.5789 25.0141C46.6581 25.0958 46.7139 25.1971 46.7405 25.3076C46.7766 25.4317 46.7964 25.5599 46.7993 25.6891V27.2152ZM45.6976 26.9511C45.7671 26.9495 45.8361 26.9397 45.9032 26.9217C45.964 26.9088 46.0231 26.8891 46.0795 26.863C46.1366 26.8341 46.1907 26.7997 46.2411 26.7603C46.2851 26.7163 46.3439 26.6723 46.388 26.6282V26.1147C46.2204 26.112 46.053 26.1268 45.8885 26.1587C45.7724 26.1799 45.659 26.2143 45.5507 26.2614C45.4762 26.2943 45.4107 26.3446 45.3597 26.4081C45.3184 26.4629 45.2977 26.5304 45.301 26.5989C45.3023 26.6539 45.3122 26.7084 45.3304 26.7603C45.346 26.808 45.377 26.8493 45.4185 26.8777C45.4546 26.9117 45.5012 26.9324 45.5507 26.9364C45.5801 26.9364 45.6388 26.9511 45.6976 26.9511Z" fill="white"/>
<path d="M47.4492 27.2181V24.7823H47.6989C47.7351 24.7832 47.7705 24.7933 47.8018 24.8116C47.8225 24.8361 47.833 24.8677 47.8311 24.8997L47.8605 25.2812C47.9313 25.1271 48.0369 24.9915 48.169 24.885C48.2913 24.7913 48.4408 24.7398 48.595 24.7383C48.6549 24.7384 48.7145 24.7483 48.7712 24.7676C48.8233 24.7782 48.8731 24.7981 48.9181 24.8263L48.8594 25.1491C48.8447 25.1932 48.83 25.2078 48.7859 25.2078C48.7504 25.203 48.7158 25.1932 48.6831 25.1785C48.6213 25.1593 48.5569 25.1494 48.4921 25.1491C48.3571 25.1431 48.2251 25.1905 48.1249 25.2812C48.0074 25.3824 47.9209 25.5146 47.8752 25.6627V27.2181H47.4492Z" fill="white"/>
<path d="M50.1326 27.2478C50.0521 27.2519 49.9715 27.2398 49.8958 27.212C49.8201 27.1843 49.7507 27.1416 49.6919 27.0864C49.6354 27.0226 49.5921 26.9483 49.5644 26.8677C49.5367 26.7871 49.5251 26.7019 49.5304 26.6169V25.1202H49.2366C49.2252 25.1199 49.214 25.1172 49.2039 25.1121C49.1937 25.107 49.1848 25.0998 49.1778 25.0908C49.1594 25.0708 49.1489 25.0447 49.1484 25.0174V24.8414L49.545 24.7973L49.6479 24.049C49.6481 24.0376 49.6508 24.0265 49.6559 24.0163C49.661 24.0062 49.6683 23.9973 49.6772 23.9903C49.6973 23.9719 49.7234 23.9614 49.7507 23.9609H49.971V24.7973H50.6761V25.1055H49.971V26.5729C49.9682 26.6572 49.9941 26.7399 50.0445 26.8076C50.0683 26.834 50.098 26.8544 50.1312 26.8671C50.1643 26.8799 50.2001 26.8846 50.2354 26.881C50.2752 26.8841 50.3152 26.8791 50.3529 26.8663L50.4411 26.8223C50.4632 26.8113 50.4831 26.7964 50.4998 26.7783C50.5056 26.7727 50.5126 26.7686 50.5202 26.766C50.5278 26.7635 50.5359 26.7627 50.5439 26.7636C50.5733 26.7636 50.588 26.7783 50.6027 26.8076L50.7349 27.0131C50.6581 27.0836 50.5683 27.1384 50.4705 27.1745C50.3653 27.2254 50.2495 27.2506 50.1326 27.2478Z" fill="white"/>
<path d="M51.1914 27.2159V24.78H51.4411C51.4681 24.778 51.4948 24.7858 51.5164 24.802C51.538 24.8182 51.553 24.8417 51.5586 24.8681L51.588 25.1322C51.6882 25.0193 51.8076 24.9249 51.9405 24.8534C52.0808 24.78 52.2377 24.7446 52.3959 24.7507C52.5162 24.7462 52.6361 24.7662 52.7484 24.8094C52.8486 24.8471 52.9355 24.9134 52.9982 25.0001C53.0691 25.0876 53.1238 25.1869 53.1597 25.2936C53.1958 25.4177 53.2156 25.5459 53.2185 25.6751V27.2305H52.7925V25.6751C52.8031 25.5218 52.756 25.37 52.6603 25.2496C52.6124 25.1972 52.5529 25.1567 52.4867 25.1313C52.4204 25.1058 52.3491 25.0961 52.2784 25.1028C52.1552 25.1006 52.0335 25.1309 51.9259 25.1909C51.8127 25.2603 51.709 25.3442 51.6174 25.4403V27.2305L51.1914 27.2159Z" fill="white"/>
<path d="M54.8158 24.7383C54.956 24.74 55.095 24.7648 55.2271 24.8116C55.3479 24.8571 55.4579 24.927 55.5502 25.0171C55.6437 25.1124 55.7141 25.2278 55.7559 25.3546C55.8052 25.5062 55.83 25.6647 55.8293 25.8241C55.8293 25.8975 55.8293 25.9415 55.8146 25.9562C55.7901 25.9769 55.7586 25.9875 55.7265 25.9855H54.1107C54.1125 26.1196 54.1323 26.2529 54.1695 26.3817C54.202 26.4855 54.2572 26.5807 54.331 26.6605C54.3992 26.7317 54.4786 26.7912 54.5661 26.8366C54.6629 26.8799 54.7686 26.9 54.8745 26.8953C54.9695 26.8974 55.064 26.8825 55.1536 26.8513C55.2206 26.8227 55.2893 26.7982 55.3593 26.7779C55.4101 26.7519 55.4592 26.7224 55.5062 26.6899C55.5354 26.6655 55.5712 26.6502 55.609 26.6459C55.6259 26.6469 55.6424 26.6514 55.6575 26.6589C55.6727 26.6665 55.6861 26.677 55.6971 26.6899L55.8146 26.8513C55.7579 26.9128 55.6938 26.967 55.6237 27.0127C55.55 27.0605 55.4712 27.0999 55.3887 27.1301C55.3026 27.1613 55.2142 27.1859 55.1243 27.2035C55.0367 27.2157 54.9482 27.2206 54.8599 27.2181C54.699 27.2187 54.5395 27.1889 54.3898 27.1301C54.2515 27.0731 54.1265 26.9882 54.0226 26.8806C53.9107 26.7658 53.8298 26.6244 53.7876 26.4698C53.7263 26.2904 53.6964 26.1017 53.6994 25.9122C53.7 25.7528 53.7247 25.5945 53.7729 25.4426C53.8252 25.3044 53.8996 25.1756 53.9932 25.0611C54.0944 24.9571 54.2139 24.8725 54.3457 24.8116C54.4978 24.7636 54.6563 24.7388 54.8158 24.7383ZM54.8305 25.0611C54.742 25.0562 54.6534 25.0692 54.57 25.0995C54.4867 25.1298 54.4104 25.1766 54.3457 25.2372C54.2182 25.374 54.1405 25.5498 54.1254 25.7361H55.4474C55.4483 25.6414 55.4334 25.5471 55.4034 25.4573C55.3763 25.3781 55.3366 25.3038 55.2858 25.2372C55.2321 25.1803 55.1671 25.1353 55.0949 25.1051C55.0103 25.0738 54.9206 25.0589 54.8305 25.0611Z" fill="white"/>
<path d="M56.3789 27.2181V24.7823H56.6286C56.6648 24.7832 56.7002 24.7933 56.7314 24.8116C56.7522 24.8361 56.7627 24.8677 56.7608 24.8997L56.7902 25.2812C56.861 25.1271 56.9666 24.9915 57.0987 24.885C57.221 24.7913 57.3705 24.7398 57.5247 24.7383C57.5846 24.7384 57.6442 24.7483 57.7009 24.7676C57.753 24.7782 57.8028 24.7981 57.8478 24.8263L57.7891 25.1491C57.7744 25.1932 57.7597 25.2078 57.7156 25.2078C57.6801 25.203 57.6455 25.1932 57.6128 25.1785C57.5509 25.1593 57.4866 25.1494 57.4218 25.1491C57.2868 25.1431 57.1548 25.1905 57.0546 25.2812C56.9371 25.3824 56.8506 25.5146 56.8049 25.6627V27.2181H56.3789Z" fill="white"/>
<path d="M53.6141 4.41406C52.1615 4.41406 50.7415 4.84436 49.5337 5.65055C48.3259 6.45673 47.3845 7.60259 46.8286 8.94322C46.2727 10.2839 46.1273 11.7591 46.4107 13.1823C46.694 14.6055 47.3935 15.9128 48.4207 16.9389C49.4478 17.9649 50.7565 18.6637 52.1812 18.9468C53.6059 19.2299 55.0827 19.0846 56.4247 18.5293C57.7667 17.974 58.9138 17.0336 59.7208 15.8271C60.5278 14.6205 60.9586 13.202 60.9586 11.7509C60.9586 9.80506 60.1848 7.9389 58.8074 6.56298C57.4301 5.18705 55.562 4.41406 53.6141 4.41406ZM53.6141 16.153C52.7425 16.153 51.8905 15.8949 51.1658 15.4111C50.4411 14.9274 49.8763 14.2399 49.5428 13.4355C49.2093 12.6312 49.122 11.746 49.292 10.8921C49.4621 10.0382 49.8818 9.2538 50.498 8.63815C51.1143 8.02251 51.8995 7.60325 52.7544 7.43339C53.6092 7.26353 54.4952 7.35071 55.3004 7.6839C56.1057 8.01708 56.7939 8.58131 57.2781 9.30523C57.7623 10.0292 58.0208 10.8803 58.0208 11.7509C58.0208 12.9184 57.5565 14.0381 56.7301 14.8637C55.9037 15.6892 54.7828 16.153 53.6141 16.153Z" fill="#8F8F8F"/>
<path d="M38.1922 4.41406C36.7396 4.41406 35.3196 4.84436 34.1118 5.65055C32.904 6.45673 31.9626 7.60259 31.4067 8.94322C30.8508 10.2839 30.7054 11.7591 30.9888 13.1823C31.2722 14.6055 31.9717 15.9128 32.9988 16.9389C34.026 17.9649 35.3346 18.6637 36.7593 18.9468C38.184 19.2299 39.6608 19.0846 41.0028 18.5293C42.3449 17.974 43.4919 17.0336 44.2989 15.8271C45.106 14.6205 45.5367 13.202 45.5367 11.7509C45.5367 10.7874 45.3467 9.83337 44.9776 8.94322C44.6085 8.05308 44.0676 7.24427 43.3856 6.56298C42.7036 5.88169 41.8939 5.34126 41.0028 4.97255C40.1117 4.60384 39.1567 4.41406 38.1922 4.41406ZM38.1922 16.153C37.3206 16.153 36.4686 15.8949 35.7439 15.4111C35.0193 14.9274 34.4544 14.2399 34.1209 13.4355C33.7874 12.6312 33.7001 11.746 33.8701 10.8921C34.0402 10.0382 34.4599 9.2538 35.0762 8.63815C35.6925 8.02251 36.4777 7.60325 37.3325 7.43339C38.1873 7.26353 39.0733 7.35071 39.8786 7.6839C40.6838 8.01708 41.372 8.58131 41.8562 9.30523C42.3405 10.0292 42.5989 10.8803 42.5989 11.7509C42.5989 12.9184 42.1346 14.0381 41.3082 14.8637C40.4818 15.6892 39.3609 16.153 38.1922 16.153Z" fill="#8F8F8F"/>
<path d="M7.34453 4.41797C5.89192 4.41797 4.47193 4.84827 3.26413 5.65445C2.05633 6.46064 1.11496 7.6065 0.559072 8.94713C0.00318184 10.2878 -0.142264 11.763 0.141126 13.1862C0.424517 14.6094 1.12401 15.9167 2.15117 16.9428C3.17832 17.9688 4.48699 18.6676 5.91168 18.9507C7.33638 19.2338 8.81312 19.0885 10.1552 18.5332C11.4972 17.9779 12.6443 17.0375 13.4513 15.831C14.2583 14.6244 14.6891 13.2059 14.6891 11.7548C14.6891 9.80897 13.9153 7.94281 12.5379 6.56688C11.1605 5.19096 9.29242 4.41797 7.34453 4.41797ZM7.34453 16.1569C6.47296 16.1569 5.62097 15.8988 4.89629 15.415C4.17161 14.9313 3.60679 14.2438 3.27326 13.4394C2.93972 12.6351 2.85245 11.7499 3.02249 10.896C3.19252 10.0421 3.61222 9.25771 4.22851 8.64206C4.8448 8.02641 5.63 7.60715 6.48482 7.4373C7.33964 7.26744 8.22569 7.35462 9.03091 7.6878C9.83613 8.02099 10.5244 8.58522 11.0086 9.30914C11.4928 10.0331 11.7512 10.8842 11.7512 11.7548C11.7512 12.9223 11.287 14.042 10.4606 14.8676C9.63413 15.6931 8.51326 16.1569 7.34453 16.1569Z" fill="#714B67"/>
<path d="M28.6459 0C28.2563 0 27.8827 0.154598 27.6073 0.429783C27.3318 0.704968 27.177 1.0782 27.177 1.46737V5.86948C25.8539 4.8782 24.2346 4.36204 22.5813 4.40455C20.928 4.44707 19.3374 5.04578 18.0671 6.10376C16.7969 7.16173 15.9212 8.61703 15.582 10.234C15.2427 11.8511 15.4597 13.5351 16.1979 15.0136C16.9361 16.492 18.1521 17.6783 19.6492 18.3804C21.1463 19.0825 22.8368 19.2593 24.447 18.8821C26.0572 18.5049 27.4929 17.5959 28.5215 16.3022C29.5501 15.0084 30.1115 13.4058 30.1148 11.7536V1.46737C30.1148 1.0782 29.9601 0.704968 29.6846 0.429783C29.4091 0.154598 29.0355 0 28.6459 0ZM22.7703 16.1411C21.8987 16.1411 21.0467 15.8829 20.3221 15.3992C19.5974 14.9155 19.0326 14.228 18.699 13.4236C18.3655 12.6192 18.2782 11.7341 18.4483 10.8802C18.6183 10.0262 19.038 9.24185 19.6543 8.6262C20.2706 8.01056 21.0558 7.5913 21.9106 7.42144C22.7654 7.25158 23.6515 7.33876 24.4567 7.67195C25.2619 8.00513 25.9501 8.56936 26.4344 9.29329C26.9186 10.0172 27.177 10.8683 27.177 11.739C27.177 12.9065 26.7127 14.0262 25.8863 14.8517C25.0599 15.6773 23.939 16.1411 22.7703 16.1411Z" fill="#8F8F8F"/>
</svg>
