<svg width="26" height="26" viewBox="0 0 26 26" fill="none" xmlns="http://www.w3.org/2000/svg">
<path fill-rule="evenodd" clip-rule="evenodd" d="M4.14897 4.80691H10.4428C10.8607 4.80691 11.202 5.14867 11.202 5.56609C11.202 5.98402 10.8602 6.32527 10.4428 6.32527H4.14897C3.73155 6.32527 3.38979 5.98352 3.38979 5.56609C3.38979 5.14867 3.73104 4.80691 4.14897 4.80691ZM16.7696 14.1471C18.2123 14.1471 19.3818 15.3166 19.3818 16.7593C19.3818 18.202 18.2123 19.3715 16.7696 19.3715C15.3269 19.3715 14.1574 18.202 14.1574 16.7593C14.158 15.3166 15.3274 14.1471 16.7696 14.1471ZM16.3634 15.2064V15.3298C16.24 15.378 16.1293 15.4517 16.0374 15.5436C15.4371 16.1438 15.8698 17.165 16.7087 17.165H16.8301C17.0108 17.165 17.0108 17.4403 16.8301 17.4403C16.694 17.4403 16.6051 17.4631 16.5462 17.3819C16.483 17.2948 16.3878 17.2363 16.2815 17.2193C16.1753 17.2024 16.0666 17.2283 15.9795 17.2915C15.8924 17.3547 15.8339 17.4499 15.817 17.5561C15.8 17.6624 15.8259 17.7711 15.8891 17.8582C16.0049 18.0182 16.1724 18.1405 16.3629 18.204V18.3112C16.3629 18.5356 16.5447 18.7174 16.7691 18.7174C16.9936 18.7174 17.1754 18.5356 17.1754 18.3112V18.1878C17.2988 18.1395 17.4095 18.0659 17.5014 17.974C18.1016 17.3738 17.6685 16.3525 16.8301 16.3525H16.7087C16.5279 16.3525 16.5279 16.0773 16.7087 16.0773C16.8448 16.0773 16.9337 16.0545 16.9926 16.1357C17.0557 16.2228 17.1509 16.2813 17.2572 16.2982C17.3635 16.3152 17.4721 16.2892 17.5593 16.2261C17.6464 16.1629 17.7049 16.0677 17.7218 15.9614C17.7388 15.8552 17.7128 15.7465 17.6497 15.6594C17.5339 15.4989 17.3663 15.377 17.1759 15.3136V15.2064C17.1759 14.982 16.9941 14.8002 16.7696 14.8002C16.5452 14.8002 16.3634 14.982 16.3634 15.2064ZM25.3928 17.2371C26.3114 12.6318 22.9599 8.27984 18.2931 7.98582V11.9402C20.3578 12.2078 21.8478 14.107 21.572 16.2134L25.3928 17.2371ZM16.276 9.01516C13.0824 9.21625 10.4144 11.3526 9.43123 14.2654L13.252 15.2892C13.7629 14.0547 14.9049 13.1472 16.276 12.9695V9.01516ZM9.17581 15.2196L12.9971 16.2434C12.9087 16.9167 13.0001 17.5911 13.2546 18.202L9.82936 20.1794C9.07627 18.6626 8.8376 16.9162 9.17581 15.2196ZM10.3235 21.0351C11.2644 22.4453 12.6558 23.5295 14.292 24.082L15.3158 20.2607C14.697 20.004 14.1567 19.5889 13.7492 19.0571L10.3235 21.0351ZM15.2462 24.3369C19.1213 25.1103 22.8817 22.8566 24.1085 19.2207L20.2873 18.1969C19.6418 19.7569 18.0183 20.7451 16.2699 20.5156L15.2462 24.3369ZM11.0395 7.02047C11.6778 7.69535 12.2709 8.42355 12.7645 9.18223C11.0943 10.0694 9.75319 11.4933 8.97065 13.2244C8.95795 12.3825 8.26682 11.7005 7.42334 11.7005C7.12526 11.7005 6.89065 11.7254 6.64944 11.4841C6.18174 11.0164 6.52502 10.2304 7.16842 10.2304C7.5437 10.2304 7.86717 10.1816 8.12463 10.5376C8.18782 10.6247 8.28301 10.6832 8.38928 10.7001C8.49555 10.7171 8.60421 10.6911 8.69135 10.628C8.77847 10.5648 8.83693 10.4696 8.85388 10.3633C8.87083 10.2571 8.84488 10.1484 8.78174 10.0612C8.52936 9.71289 8.13428 9.47777 7.70213 9.42801V8.8491C7.70213 8.62465 7.52034 8.44285 7.29588 8.44285C7.07143 8.44285 6.88963 8.62465 6.88963 8.8491V9.44324C5.67952 9.66516 5.18491 11.1688 6.0751 12.059C6.35541 12.3393 6.74237 12.5135 7.16842 12.5135C7.46651 12.5135 7.70112 12.4886 7.94233 12.7298C8.41002 13.1975 8.06674 13.9836 7.42334 13.9836C7.04807 13.9836 6.72459 14.0323 6.46713 13.6764C6.40395 13.5893 6.30876 13.5308 6.20249 13.5138C6.09622 13.4969 5.98756 13.5228 5.90041 13.586C5.8133 13.6492 5.75484 13.7443 5.73789 13.8506C5.72094 13.9569 5.74688 14.0655 5.81002 14.1527C6.06241 14.5011 6.45748 14.7362 6.88913 14.7859V15.3648C6.88913 15.5893 7.07092 15.7711 7.29538 15.7711C7.51983 15.7711 7.70163 15.5893 7.70163 15.3648V14.7707C8.04592 14.7077 8.35163 14.53 8.5771 14.2771C8.21045 15.4979 8.11956 16.7984 8.31913 18.074H5.54139C3.891 18.074 2.47116 17.3717 1.47026 16.06C-0.768687 13.1264 1.05131 9.66465 3.55178 7.02047C3.74101 7.09853 3.94376 7.13856 4.14846 7.13828H10.4423C10.654 7.13828 10.8551 7.09664 11.0395 7.02047ZM3.93213 4.00965C3.86104 3.90301 3.77725 3.78164 3.67721 3.63895C2.81901 2.4141 2.99319 1.99922 5.08893 2.77414C5.96846 3.09914 5.59827 1.51172 7.29588 1.51172C8.9935 1.51172 8.62331 3.09965 9.50284 2.77414C11.5986 1.99922 11.7728 2.41461 10.9146 3.63895C10.8145 3.78215 10.7307 3.90352 10.6596 4.00965C10.5885 4 10.5164 3.99441 10.4428 3.99441H4.14897C4.07534 3.99441 4.00323 4 3.93213 4.00965Z" fill="white"/>
</svg>
