<svg width="24" height="24" viewBox="0 0 24 24" fill="none" xmlns="http://www.w3.org/2000/svg">
<g clip-path="url(#clip0_4827_9790)">
<path d="M6.60938 2.8125H11.7656C12.1539 2.8125 12.4688 2.49769 12.4688 2.10938V1.40625C12.4688 0.629578 11.8392 0 11.0625 0H7.3125C6.53583 0 5.90625 0.629578 5.90625 1.40625V2.10938C5.90625 2.49769 6.22106 2.8125 6.60938 2.8125ZM18.7645 18.8128V20.3184C19.0282 20.1674 19.1857 19.9004 19.2284 19.6463C19.2592 19.463 19.2718 19.0264 18.7645 18.8128ZM17.578 16.8216C17.5405 17.0203 17.5879 17.2049 17.6988 17.2918C17.7401 17.3239 17.7829 17.354 17.827 17.382V16.4017C17.684 16.5115 17.6051 16.6776 17.578 16.8216Z" fill="white"/>
<path d="M11.6991 20.7188H8.25C7.86169 20.7188 7.54688 20.4039 7.54688 20.0156C7.54688 19.6273 7.86169 19.3125 8.25 19.3125H11.3595C11.3185 19.0057 11.2969 18.6929 11.2969 18.375C11.2969 18.0571 11.3185 17.7443 11.3595 17.4375H8.25C7.86169 17.4375 7.54688 17.1227 7.54688 16.7344C7.54688 16.3461 7.86169 16.0312 8.25 16.0312H11.6991C11.9377 15.3587 12.2775 14.7264 12.7067 14.1562H8.25C7.86169 14.1562 7.54688 13.8414 7.54688 13.4531C7.54688 13.0648 7.86169 12.75 8.25 12.75H14.115C15.29 11.8676 16.7489 11.3438 18.3281 11.3438V3.98438C18.3281 2.81939 17.3837 1.875 16.2188 1.875H13.875V2.10938C13.875 3.27436 12.9306 4.21875 11.7656 4.21875H6.60938C5.44439 4.21875 4.5 3.27436 4.5 2.10938V1.875H2.15625C0.991266 1.875 0.046875 2.81939 0.046875 3.98438V21.8906C0.046875 23.0556 0.991266 24 2.15625 24H14.114C13.0158 23.1752 12.1664 22.0366 11.6991 20.7188ZM8.25 6.1875H14.8125C15.2008 6.1875 15.5156 6.50231 15.5156 6.89062C15.5156 7.27894 15.2008 7.59375 14.8125 7.59375H8.25C7.86169 7.59375 7.54688 7.27894 7.54688 6.89062C7.54688 6.50231 7.86169 6.1875 8.25 6.1875ZM8.25 9.46875H14.8125C15.2008 9.46875 15.5156 9.78356 15.5156 10.1719C15.5156 10.5602 15.2008 10.875 14.8125 10.875H8.25C7.86169 10.875 7.54688 10.5602 7.54688 10.1719C7.54688 9.78356 7.86169 9.46875 8.25 9.46875ZM5.4375 20.7188H3.5625C3.17419 20.7188 2.85938 20.4039 2.85938 20.0156C2.85938 19.6273 3.17419 19.3125 3.5625 19.3125H5.4375C5.82581 19.3125 6.14062 19.6273 6.14062 20.0156C6.14062 20.4039 5.82581 20.7188 5.4375 20.7188ZM5.4375 17.4375H3.5625C3.17419 17.4375 2.85938 17.1227 2.85938 16.7344C2.85938 16.3461 3.17419 16.0312 3.5625 16.0312H5.4375C5.82581 16.0312 6.14062 16.3461 6.14062 16.7344C6.14062 17.1227 5.82581 17.4375 5.4375 17.4375ZM5.4375 14.1562H3.5625C3.17419 14.1562 2.85938 13.8414 2.85938 13.4531C2.85938 13.0648 3.17419 12.75 3.5625 12.75H5.4375C5.82581 12.75 6.14062 13.0648 6.14062 13.4531C6.14062 13.8414 5.82581 14.1562 5.4375 14.1562ZM5.4375 10.875H3.5625C3.17419 10.875 2.85938 10.5602 2.85938 10.1719C2.85938 9.78356 3.17419 9.46875 3.5625 9.46875H5.4375C5.82581 9.46875 6.14062 9.78356 6.14062 10.1719C6.14062 10.5602 5.82581 10.875 5.4375 10.875ZM5.4375 7.59375H3.5625C3.17419 7.59375 2.85938 7.27894 2.85938 6.89062C2.85938 6.50231 3.17419 6.1875 3.5625 6.1875H5.4375C5.82581 6.1875 6.14062 6.50231 6.14062 6.89062C6.14062 7.27894 5.82581 7.59375 5.4375 7.59375Z" fill="white"/>
<path d="M18.3281 12.75C15.2215 12.75 12.7031 15.2684 12.7031 18.375C12.7031 21.4816 15.2215 24 18.3281 24C21.4347 24 23.9531 21.4816 23.9531 18.375C23.9531 15.2684 21.4347 12.75 18.3281 12.75ZM20.1529 19.8017C20.0426 20.4577 19.5434 21.123 18.7645 21.3206V21.6562C18.7645 21.9151 18.5546 22.125 18.2958 22.125C18.0369 22.125 17.827 21.9151 17.827 21.6562V21.3655C17.4486 21.3328 17.1348 21.2306 16.6901 20.9396C16.4734 20.7979 16.4127 20.5074 16.5544 20.2907C16.696 20.0741 16.9867 20.0133 17.2033 20.1551C17.4565 20.3207 17.6152 20.3927 17.827 20.4225V18.4427C17.5276 18.3054 17.3039 18.1734 17.1202 18.0294C16.7312 17.7243 16.5536 17.195 16.6567 16.6479C16.769 16.0517 17.184 15.5774 17.7396 15.4101C17.7686 15.4014 17.7978 15.3932 17.827 15.3854V15.0938C17.827 14.8349 18.0369 14.625 18.2958 14.625C18.5546 14.625 18.7645 14.8349 18.7645 15.0938V15.3341C19.2196 15.4129 19.5413 15.6369 19.6971 15.8158C19.8672 16.011 19.8467 16.3071 19.6515 16.4771C19.4574 16.6462 19.1634 16.627 18.9929 16.4347C18.9822 16.4239 18.9077 16.3522 18.7645 16.2993V17.814C18.8477 17.8448 18.9309 17.8748 19.0125 17.9037C19.8365 18.1949 20.2948 18.9577 20.1529 19.8017Z" fill="white"/>
</g>
<defs>
<clipPath id="clip0_4827_9790">
<rect width="24" height="24" fill="white"/>
</clipPath>
</defs>
</svg>
